<svg xmlns="http://www.w3.org/2000/svg" xmlns:xlink="http://www.w3.org/1999/xlink"><defs>
<clipPath id="clip0_1_1179">
<rect width="84" height="100" fill="currentColor"/>
</clipPath>
</defs><symbol id="arrow" viewBox="0 0 16 11">
<path d="M2.29756 1L8 7.16667L13.7024 1L15 2.40741L8 10L1 2.40741L2.29756 1Z" fill="white" stroke="white" stroke-width="0.5"/>
</symbol><symbol id="bars" viewBox="0 0 32 24">
<path d="M11.0555 1.39846C11.1036 1.16639 11.308 1 11.545 1H19.7701C20.0071 1 20.2115 1.16639 20.2596 1.39846L21.7707 8.68417C21.8351 8.99454 21.5981 9.28572 21.2812 9.28572H10.0339C9.71695 9.28572 9.47997 8.99454 9.54434 8.68417L11.0555 1.39846ZM2.52207 15.1128C2.5702 14.8807 2.77465 14.7143 3.01165 14.7143H11.2367C11.4737 14.7143 11.6781 14.8807 11.7263 15.1128L13.2374 22.3985C13.3017 22.7088 13.0648 23 12.7478 23H1.50054C1.18357 23 0.946589 22.7088 1.01096 22.3985L2.52207 15.1128ZM19.5887 15.1128C19.6368 14.8807 19.8413 14.7143 20.0783 14.7143H28.3033C28.5403 14.7143 28.7448 14.8807 28.7929 15.1128L30.304 22.3985C30.3684 22.7088 30.1314 23 29.8144 23H18.5672C18.2502 23 18.0132 22.7088 18.0776 22.3985L19.5887 15.1128Z" stroke="#A0A0A0" stroke-width="2" fill="white"/>
</symbol><symbol id="burger" viewBox="0 0 28 22">
<path d="M0 1.2C0 0.537258 0.537259 0 1.2 0H26.3557C27.0184 0 27.5557 0.537258 27.5557 1.2C27.5557 1.86274 27.0184 2.4 26.3557 2.4H1.2C0.537258 2.4 0 1.86274 0 1.2Z" fill="currentColor"/>
<path d="M0 10.8C0 10.1372 0.537259 9.59998 1.2 9.59998H26.3557C27.0184 9.59998 27.5557 10.1372 27.5557 10.8C27.5557 11.4627 27.0184 12 26.3557 12H1.2C0.537258 12 0 11.4627 0 10.8Z" fill="currentColor"/>
<path d="M0 20.4001C0 19.7373 0.537259 19.2001 1.2 19.2001H26.3557C27.0184 19.2001 27.5557 19.7373 27.5557 20.4001C27.5557 21.0628 27.0184 21.6001 26.3557 21.6001H1.2C0.537258 21.6001 0 21.0628 0 20.4001Z" fill="currentColor"/>
</symbol><symbol id="candles" viewBox="0 0 32 32">
<rect x="1" y="4.19995" width="4.15385" height="12.9333" stroke="#A0A0A0" stroke-width="2" fill="white"/>
<rect x="9.61548" y="10.6" width="4.15385" height="12.9333" stroke="#A0A0A0" stroke-width="2" fill="white"/>
<rect x="18.2307" y="8.46667" width="4.15385" height="12.9333" stroke="#A0A0A0" stroke-width="2" fill="white"/>
<rect x="26.8462" y="14.8666" width="4.15385" height="12.9333" stroke="#A0A0A0" stroke-width="2" fill="white"/>
<rect x="27.7333" y="10.6666" width="2.13333" height="4.26667" rx="1.06667" fill="#A0A0A0"/>
<rect x="19.2" y="4.26672" width="2.13333" height="4.26667" rx="1.06667" fill="#A0A0A0"/>
<rect x="10.6667" y="6.40002" width="2.13333" height="4.26667" rx="1.06667" fill="#A0A0A0"/>
<rect x="2.1333" width="2.13333" height="4.26667" rx="1.06667" fill="#A0A0A0"/>
<rect x="27.7333" y="27.7333" width="2.13333" height="4.26667" rx="1.06667" fill="#A0A0A0"/>
<rect x="19.2" y="21.3334" width="2.13333" height="4.26667" rx="1.06667" fill="#A0A0A0"/>
<rect x="10.6667" y="23.4667" width="2.13333" height="4.26667" rx="1.06667" fill="#A0A0A0"/>
<rect x="2.1333" y="17.0667" width="2.13333" height="4.26667" rx="1.06667" fill="#A0A0A0"/>
</symbol><symbol id="footer-logo" viewBox="0 0 84 100">
<g clip-path="url(#clip0_1_1179)">
<path d="M84 0H0V83.3438H84V0Z" fill="currentColor"/>
<path d="M0 0L84 83.3438V0H0Z" fill="#1DAAB3"/>
<path d="M0 83.3438L16.8085 99.9999H67.1915L84 83.3438H0Z" fill="currentColor"/>
<path d="M10.5757 68.8329V64.795H11.6567V68.7698C11.6567 69.7162 12.229 70.1999 13.098 70.1999C13.9459 70.1999 14.5182 69.7372 14.5182 68.7698V64.8161H15.6203V68.8539C15.6203 70.3471 14.5605 71.1883 13.098 71.1883C11.6355 71.1673 10.5757 70.3471 10.5757 68.8329Z" fill="#294570"/>
<path d="M20.5378 68.4965V71.0622H19.5204V68.6016C19.5204 68.0969 19.3085 67.7604 18.821 67.7604C18.1851 67.7604 17.8035 68.202 17.8035 68.8119V71.0622H16.7861V66.9612H17.4644L17.6764 67.6132C17.9519 67.1926 18.397 66.8561 19.0541 66.8561C20.0291 66.8561 20.5378 67.4449 20.5378 68.4965Z" fill="#294570"/>
<path d="M21.5765 65.5101C21.5765 65.1736 21.8097 64.9213 22.2124 64.9213C22.5939 64.9213 22.8483 65.1947 22.8483 65.5311C22.8483 65.8676 22.5939 66.12 22.2124 66.12C21.8097 66.099 21.5765 65.8466 21.5765 65.5101ZM21.6825 66.9612H22.6999V71.0622H21.6825V66.9612Z" fill="#294570"/>
<path d="M24.1833 69.8003V67.8024L23.4626 67.7393V66.9401H24.1833L24.2045 65.6362H25.1795V66.9401H26.4513V67.8024H25.1795V69.6951C25.1795 70.0947 25.3703 70.2209 25.6246 70.2209C25.8578 70.2209 26.091 70.1578 26.3241 70.0106L26.6421 70.7677C26.2605 70.999 25.8578 71.1462 25.3915 71.1462C24.6708 71.1462 24.1833 70.7256 24.1833 69.8003Z" fill="#294570"/>
<path d="M30.9875 68.8539C30.9875 69.0011 30.9663 69.1693 30.9451 69.3376H27.9777C28.1048 69.9895 28.6347 70.347 29.2918 70.347C29.7581 70.347 30.0973 70.1998 30.394 69.9685L30.8179 70.6204C30.3516 70.999 29.8429 71.1883 29.207 71.1883C27.8929 71.1883 26.9814 70.305 26.9814 69.0221C26.9814 67.8234 27.8505 66.877 29.1011 66.877C30.2668 66.856 30.9875 67.6341 30.9875 68.8539ZM27.9989 68.6646H30.0337C30.0125 68.0127 29.6098 67.6762 29.0799 67.6762C28.55 67.6551 28.1048 68.0127 27.9989 68.6646Z" fill="#294570"/>
<path d="M35.9895 64.4375V71.0411H35.29L35.1204 70.4312C34.7813 70.8729 34.2726 71.1463 33.6367 71.1463C32.4497 71.1463 31.6443 70.263 31.6443 68.9591C31.6443 67.7393 32.4709 66.835 33.6367 66.835C34.1878 66.835 34.6965 67.0453 35.0145 67.4239C34.9933 67.0453 34.9933 66.7088 34.9933 66.2462V64.4165H35.9895V64.4375ZM35.0357 69.0012C35.0357 68.2441 34.5693 67.7393 33.8487 67.7393C33.1492 67.7393 32.6829 68.2441 32.6829 69.0012C32.6829 69.7583 33.1492 70.284 33.8487 70.284C34.5693 70.284 35.0357 69.7583 35.0357 69.0012Z" fill="#294570"/>
<path d="M15.3243 77.8761C15.3243 78.9065 14.5188 79.6006 13.353 79.6006H10.6611V73.3545H13.1623C14.2645 73.3545 15.0699 74.0064 15.0699 74.9949C15.0699 75.5837 14.7732 76.0464 14.3281 76.3408C14.9215 76.5932 15.3243 77.161 15.3243 77.8761ZM11.7421 75.9412H12.9927C13.6074 75.9412 13.9465 75.6258 13.9465 75.058C13.9465 74.5532 13.5438 74.2378 12.9715 74.2378H11.7209V75.9412H11.7421ZM14.2221 77.7709C14.2221 77.2031 13.8193 76.8245 13.2047 76.8245H11.7421V78.7173H13.1623C13.7982 78.7173 14.2221 78.3598 14.2221 77.7709Z" fill="#294570"/>
<path d="M19.0971 75.5835L18.8428 76.4247C18.6944 76.3617 18.5248 76.3406 18.3129 76.3406C17.7194 76.3406 17.3378 76.7192 17.3378 77.3711V79.6003H16.3204V75.4994H16.9987L17.1895 76.1093C17.4226 75.6466 17.8466 75.4153 18.3765 75.4153C18.6732 75.4153 18.9064 75.4784 19.0971 75.5835Z" fill="#294570"/>
<path d="M19.3092 77.5604C19.3092 76.2986 20.2206 75.3943 21.5136 75.3943C22.8066 75.3943 23.7392 76.2776 23.7392 77.5604C23.7392 78.8223 22.8066 79.7266 21.5136 79.7266C20.2206 79.7266 19.3092 78.8223 19.3092 77.5604ZM22.7006 77.5604C22.7006 76.8033 22.2131 76.2776 21.5136 76.2776C20.8141 76.2776 20.3266 76.8033 20.3266 77.5604C20.3266 78.3175 20.8141 78.8433 21.5136 78.8433C22.2343 78.8433 22.7006 78.3175 22.7006 77.5604Z" fill="#294570"/>
<path d="M28.3172 79.5584V79.6215H27.1514L25.6677 77.876V79.6215H24.6503V73.0179H25.6677V77.1609L27.0454 75.5416H28.19V75.5837L26.5579 77.5185L28.3172 79.5584Z" fill="#294570"/>
<path d="M32.4928 77.4134C32.4928 77.5606 32.4716 77.7288 32.4504 77.8971H29.4829C29.6101 78.549 30.14 78.9065 30.7971 78.9065C31.2634 78.9065 31.6025 78.7593 31.8993 78.528L32.3232 79.1799C31.8569 79.5585 31.3482 79.7477 30.7123 79.7477C29.3981 79.7477 28.4867 78.8645 28.4867 77.5606C28.4867 76.3618 29.3557 75.4155 30.6063 75.4155C31.7933 75.3944 32.4928 76.1726 32.4928 77.4134ZM29.5041 77.203H31.5389C31.5177 76.5511 31.115 76.2146 30.5851 76.2146C30.0552 76.2146 29.6313 76.5721 29.5041 77.203Z" fill="#294570"/>
<path d="M36.1813 75.5835L35.927 76.4247C35.7786 76.3617 35.6091 76.3406 35.3971 76.3406C34.8036 76.3406 34.4221 76.7192 34.4221 77.3711V79.6003H33.4047V75.4994H34.0829L34.2737 76.1093C34.5069 75.6466 34.9308 75.4153 35.4607 75.4153C35.7574 75.4153 35.9906 75.4784 36.1813 75.5835Z" fill="#294570"/>
<path d="M36.4565 79.2428L36.8593 78.5278C37.2196 78.7381 37.6011 78.8643 37.9827 78.8643C38.343 78.8643 38.5973 78.696 38.5973 78.4437C38.5973 78.1492 38.2158 78.002 37.7919 77.8338C37.1348 77.5814 36.6261 77.2449 36.6261 76.572C36.6261 75.8149 37.3044 75.4153 38.0886 75.4153C38.555 75.4153 39.0001 75.5204 39.4452 75.7728L39.0849 76.4458C38.7881 76.2986 38.449 76.2144 38.1734 76.2144C37.8555 76.2144 37.5799 76.2986 37.5799 76.572C37.5799 76.8454 37.8767 76.9926 38.3218 77.1608C39.0425 77.4342 39.5724 77.7707 39.5724 78.4437C39.5724 79.2008 38.9577 79.6845 38.0462 79.6845C37.4528 79.7055 36.9441 79.5583 36.4565 79.2428Z" fill="#294570"/>
<path d="M29.5689 55.5843L19.7763 45.8682H19.6915L19.7127 16.6779L9.89893 26.3939L9.96251 45.7841L10.0897 45.8682H9.96251L19.7763 55.6053H29.5901H29.5689L39.3191 45.8682L39.3615 26.6042L29.5477 16.8671L29.5689 55.5843Z" fill="#294570"/>
<path d="M9.89893 16.6779V21.5359L14.7952 16.6779H9.89893Z" fill="#294570"/>
<path d="M39.3189 16.6774H34.4226L39.3189 21.5354V16.6774Z" fill="#294570"/>
<path d="M52.4817 68.8967L52.5029 39.6853L42.6891 49.4224L42.7527 68.8125L42.8799 68.8967H42.7527L52.5665 78.6338H62.3802L52.5665 68.8967H52.4817Z" fill="#294570"/>
<path d="M62.3793 39.6851H52.5656L62.3793 49.4222L52.5656 59.1593H62.3793L72.1931 49.4222L62.3793 39.6851Z" fill="#294570"/>
<path d="M62.3796 78.6334L72.1934 68.8963L62.3796 59.1592V78.6334Z" fill="#294570"/>
<path d="M42.7531 39.6851V44.5641L47.6705 39.6851H42.7531Z" fill="#294570"/>
</g>

</symbol><symbol id="headphones" viewBox="0 0 32 35">
<path d="M28.2936 13.321H27.5436V11.8806C27.5436 5.32963 22.2897 0 15.8314 0C9.37312 0 4.11915 5.32963 4.11915 11.8806V13.321H3.70639C1.66261 13.321 0 15.0076 0 17.0808V23.02C0 25.0932 1.66261 26.7798 3.70639 26.7798H6.2906C7.21957 26.7798 7.97532 26.0131 7.97532 25.0708V15.03C7.97532 14.0876 7.21957 13.321 6.2906 13.321H6.14082V11.8806C6.14082 6.46049 10.4879 2.05078 15.8317 2.05078C21.1749 2.05078 25.522 6.46049 25.522 11.8806V13.3319C24.6809 13.4267 24.0247 14.152 24.0247 15.03V25.0711C24.0247 25.9491 24.6809 26.674 25.522 26.7691V27.1253C25.522 29.2036 23.8552 30.8944 21.8064 30.8944H19.3719C18.8802 29.6987 17.5548 28.8396 15.9999 28.8396C14.0277 28.8396 12.4233 30.2215 12.4233 31.9198C12.4233 33.6181 14.0277 35 15.9999 35C17.5548 35 18.8802 34.141 19.3719 32.9452H21.8064C24.97 32.9452 27.5436 30.3345 27.5436 27.1253V26.7798H28.2936C30.3371 26.7798 32 25.0932 32 23.02V17.0808C32 15.0076 30.3371 13.321 28.2936 13.321ZM5.95365 24.729H3.70639C2.77742 24.729 2.02167 23.9624 2.02167 23.02V17.0808C2.02167 16.1384 2.77742 15.3718 3.70639 15.3718H5.95365V24.729ZM15.9999 32.9492C15.0835 32.9492 14.4449 32.4066 14.4449 31.9198C14.4449 31.4328 15.0835 30.8904 15.9999 30.8904C16.9162 30.8904 17.5548 31.433 17.5548 31.9198C17.5548 32.4066 16.9162 32.9492 15.9999 32.9492ZM29.9783 23.02C29.9783 23.9624 29.2226 24.729 28.2936 24.729H26.0463V15.3718H28.2936C29.2226 15.3718 29.9783 16.1384 29.9783 17.0808V23.02Z" fill="#A0A0A0"/>
</symbol><symbol id="icon-apple" viewBox="0 0 18 23">
<path d="M16.8069 16.256C16.4858 16.1237 16.1895 15.9353 15.9311 15.6992C15.1917 15.0386 14.7135 14.1233 14.5868 13.126C14.5252 12.6365 14.546 12.1398 14.6481 11.6575C14.7891 11.0193 15.1016 10.4344 15.5502 9.96897C15.8435 9.66809 16.1457 9.37619 16.4259 9.07082C16.5154 8.98798 16.5713 8.87377 16.5826 8.75073C16.594 8.62769 16.5599 8.50475 16.4872 8.40619C16.1664 7.98069 15.7924 7.60022 15.375 7.27452C14.8433 6.863 14.2331 6.57077 13.5841 6.41678C13.1219 6.29967 12.6447 6.25724 12.1697 6.29104C11.3756 6.38935 10.5953 6.58226 9.84462 6.86586C9.26494 7.08641 8.63237 7.11469 8.03618 6.94669C7.32271 6.7095 6.59 6.53817 5.8468 6.43475C5.00668 6.31254 4.14999 6.43612 3.37533 6.79124C2.60067 7.14637 1.93954 7.71862 1.46802 8.44211C1.057 9.0306 0.743368 9.68453 0.539721 10.3776C0.332366 11.0531 0.213104 11.7538 0.18504 12.4613C0.147894 13.3932 0.228847 14.3261 0.425873 15.2366C0.557676 15.8361 0.733323 16.4246 0.951325 16.997C1.43857 18.3618 2.13962 19.6359 3.02687 20.7692C3.49179 21.3846 4.09194 21.8785 4.77838 22.2108C5.21144 22.4173 5.69445 22.4876 6.16645 22.4128C6.665 22.3156 7.15224 22.1651 7.6202 21.9638C7.91869 21.8417 8.22815 21.7499 8.54412 21.6898C9.03977 21.6225 9.54391 21.6764 10.0154 21.847C10.5233 22.0042 11.0138 22.1928 11.5217 22.332C11.8802 22.4398 12.2571 22.4679 12.6271 22.4145C12.9971 22.3611 13.3517 22.2273 13.6673 22.0222C14.4645 21.4748 15.1391 20.76 15.6465 19.925C16.2624 19.0079 16.7475 18.0053 17.0871 16.9476C17.1175 16.884 17.1344 16.8144 17.1365 16.7436C17.1387 16.6727 17.1261 16.6022 17.0996 16.5368C17.073 16.4713 17.0332 16.4124 16.9827 16.364C16.9323 16.3156 16.8723 16.2788 16.8069 16.256Z" fill="#294570"/>
<path d="M8.60505 5.92653L8.87215 5.89959C9.48009 5.87623 10.0704 5.68373 10.5798 5.34269C10.9613 5.06331 11.3058 4.7342 11.6045 4.36364C11.9837 3.91293 12.2804 3.39563 12.4802 2.83668C12.6017 2.42621 12.6766 2.00276 12.7035 1.57469C12.7298 1.3187 12.7298 1.07169 12.7473 0.815701C12.7632 0.724886 12.7561 0.63141 12.7266 0.544225C12.6972 0.45704 12.6464 0.379066 12.5792 0.317769C12.512 0.256473 12.4305 0.213905 12.3426 0.194145C12.2548 0.174385 12.1634 0.178094 12.0774 0.204915C11.6447 0.310414 11.2236 0.460894 10.8207 0.654022C10.202 0.925322 9.65339 1.34045 9.21807 1.86661C8.47971 2.83244 8.06506 4.01693 8.03582 5.24389V5.44599C8.03328 5.51908 8.0472 5.59178 8.07649 5.65846C8.10578 5.72514 8.14965 5.784 8.2047 5.83047C8.25976 5.87695 8.32451 5.90979 8.39394 5.92645C8.46337 5.94311 8.53561 5.94314 8.60505 5.92653Z" fill="#294570"/>
</symbol><symbol id="icon-google-play" viewBox="0 0 19 21">
<path d="M3.63208 0.50258C3.38357 0.346539 3.1008 0.257066 2.80976 0.242387C2.51872 0.227708 2.22875 0.288293 1.96651 0.418573L10.9542 9.65935L13.894 6.63043L3.63208 0.50258ZM1.13828 1.27731C1.02319 1.52839 0.964116 1.80261 0.965351 2.08004V18.9795C0.964872 19.2543 1.02557 19.5257 1.14283 19.7729L10.126 10.5087L1.13828 1.27731ZM10.9542 11.3675L1.98016 20.6129C2.21431 20.7227 2.46906 20.7784 2.72649 20.7763C3.04668 20.7796 3.36158 20.6924 3.63663 20.5243L13.894 14.3871L10.9542 11.3675ZM17.7803 8.96862L14.9407 7.24181L11.7824 10.5087L14.9452 13.7757L17.8031 12.0675C18.0611 11.9064 18.2743 11.6798 18.4223 11.4097C18.5702 11.1395 18.6479 10.8349 18.6479 10.5251C18.6479 10.2153 18.5702 9.91063 18.4223 9.6405C18.2743 9.37037 18.0611 9.14382 17.8031 8.98262L17.7803 8.96862Z" fill="#294570"/>
</symbol><symbol id="icon-pc" viewBox="0 0 24 23">
<path d="M0.508789 12.4194V19.1702L9.90649 20.5552V12.4194H0.508789Z" fill="#294570"/>
<path d="M9.90649 2.05078L0.508789 3.43618V10.189H9.90649V2.05078Z" fill="#294570"/>
<path d="M23.105 10.1884V0.0106201L12.09 1.62811V10.1884H23.105Z" fill="#294570"/>
<path d="M12.0901 20.9958L23.1052 22.6133V12.4189H12.0901V20.9958Z" fill="#294570"/>
</symbol><symbol id="icon-terminal" viewBox="0 0 31 23">
<path d="M27.2839 11.411C27.2839 11.2936 27.2839 11.1763 27.2839 11.059C27.2798 8.12648 25.1154 5.75337 22.4559 5.75788C21.6499 5.75788 20.8602 5.98346 20.1524 6.41206C19.2154 2.05834 15.2589 -0.630594 11.3146 0.40257C8.02094 1.26429 5.68877 4.49913 5.66831 8.23476C5.66831 8.27988 5.66831 8.32951 5.66831 8.37462C2.1905 9.23635 0.00152868 13.0442 0.783012 16.8791C1.44175 20.1274 4.05624 22.4374 7.07171 22.4419H25.4918C28.3477 22.4419 30.6594 19.8928 30.6635 16.7482C30.6635 14.3661 29.3215 12.2366 27.3003 11.4064L27.2839 11.411ZM11.3555 18.1513C11.3555 18.5393 11.0691 18.8551 10.7173 18.8551C10.3654 18.8551 10.079 18.5393 10.079 18.1513V14.6097C10.079 14.2217 10.3654 13.9059 10.7173 13.9059C11.0691 13.9059 11.3555 14.2217 11.3555 14.6097V18.1513ZM14.1623 18.1513C14.1623 18.5393 13.8759 18.8551 13.5241 18.8551C13.1722 18.8551 12.8858 18.5393 12.8858 18.1513V12.1057C12.8858 11.7177 13.1722 11.4019 13.5241 11.4019C13.8759 11.4019 14.1623 11.7177 14.1623 12.1057V18.1513ZM16.9691 18.1198C16.9691 18.5078 16.6827 18.8236 16.3309 18.8236C15.979 18.8236 15.6926 18.5078 15.6926 18.1198V16.6038C15.6926 16.2158 15.979 15.9 16.3309 15.9C16.6827 15.9 16.9691 16.2158 16.9691 16.6038V18.1198ZM19.7759 18.0431C19.7759 18.4311 19.4895 18.7469 19.1377 18.7469C18.7858 18.7469 18.4994 18.4311 18.4994 18.0431V9.9943C18.4994 9.6063 18.7858 9.29049 19.1377 9.29049C19.4895 9.29049 19.7759 9.6063 19.7759 9.9943V18.0431Z" fill="#294570"/>
</symbol><symbol id="logo" viewBox="0 0 100 102">
<path d="M1.05103 84.3135V77.8346H2.80388V84.226C2.80388 85.8019 3.76794 86.5023 5.08258 86.5023C6.48486 86.5023 7.36128 85.7144 7.36128 84.226V77.8346H9.11413V84.3135C9.11413 86.765 7.44893 88.0783 5.08258 88.0783C2.80388 88.0783 1.05103 86.765 1.05103 84.3135Z" fill="currentColor"/>
<path d="M17.0901 83.7888V87.9038H15.5125V83.8764C15.5125 83.0884 15.1619 82.5631 14.3731 82.5631C13.3214 82.5631 12.7956 83.2635 12.7956 84.2266V87.9038H11.218V81.2498H12.3574L12.7079 82.3005C13.1461 81.6 13.8473 81.0747 14.899 81.0747C16.3013 81.0747 17.0901 82.0378 17.0901 83.7888Z" fill="currentColor"/>
<path d="M18.7554 78.8852C18.7554 78.3599 19.1059 77.9221 19.8071 77.9221C20.4206 77.9221 20.8588 78.3599 20.8588 78.8852C20.8588 79.4105 20.4206 79.8483 19.8071 79.8483C19.1059 79.8483 18.7554 79.4981 18.7554 78.8852ZM18.9307 81.2491H20.5082V87.9032H18.9307V81.2491Z" fill="currentColor"/>
<path d="M22.9621 85.8899V82.6504L21.8228 82.5629V81.2496H22.9621L23.0498 79.1483H24.5397V81.2496H26.5555V82.6504H24.5397V85.7148C24.5397 86.3277 24.8026 86.5903 25.2408 86.5903C25.5914 86.5903 25.942 86.5028 26.3802 86.2401L26.906 87.4658C26.2925 87.8161 25.679 88.0787 24.8903 88.0787C23.7509 88.0787 22.9621 87.3783 22.9621 85.8899Z" fill="currentColor"/>
<path d="M33.8298 84.3142C33.8298 84.5769 33.8298 84.8396 33.7421 85.1022H29.0094C29.1847 86.1528 30.0612 86.7657 31.1129 86.7657C31.9016 86.7657 32.4275 86.5031 32.8657 86.1528L33.5669 87.2035C32.7781 87.8163 31.9893 88.1666 31.0252 88.1666C28.9218 88.1666 27.4319 86.7657 27.4319 84.6644C27.4319 82.7383 28.8342 81.1623 30.8499 81.1623C32.6904 81.0748 33.8298 82.3881 33.8298 84.3142ZM29.0971 84.0516H32.3399C32.2522 83.0009 31.6387 82.4756 30.8499 82.4756C29.9735 82.3881 29.2724 83.0009 29.0971 84.0516Z" fill="currentColor"/>
<path d="M41.893 77.2217V87.9031H40.7536L40.4907 86.9401C39.9649 87.6405 39.1761 88.0783 38.1244 88.0783C36.1962 88.0783 34.9692 86.6774 34.9692 84.5761C34.9692 82.5624 36.2839 81.1616 38.1244 81.1616C39.0008 81.1616 39.7896 81.5118 40.3154 82.1247C40.3154 81.5118 40.2278 80.9865 40.2278 80.1985V77.2217H41.893V77.2217ZM40.3154 84.5761C40.3154 83.3504 39.5266 82.5624 38.3873 82.5624C37.2479 82.5624 36.4592 83.3504 36.4592 84.5761C36.4592 85.8019 37.2479 86.6774 38.3873 86.6774C39.6143 86.6774 40.3154 85.8019 40.3154 84.5761Z" fill="currentColor"/>
<path d="M8.67423 98.9349C8.67423 100.598 7.35959 101.737 5.5191 101.737H1.22461V91.668H5.25617C7.00902 91.668 8.32366 92.7186 8.32366 94.2946C8.32366 95.2576 7.88544 95.9581 7.09666 96.4834C8.06073 96.8336 8.67423 97.7967 8.67423 98.9349ZM2.97746 95.783H4.99324C5.95731 95.783 6.57081 95.2576 6.57081 94.3821C6.57081 93.5941 5.95731 93.0688 4.99324 93.0688H2.97746V95.783ZM6.92138 98.7598C6.92138 97.8842 6.30788 97.2714 5.34381 97.2714H2.97746V100.336H5.25617C6.22024 100.248 6.92138 99.7228 6.92138 98.7598Z" fill="currentColor"/>
<path d="M14.8116 95.2582L14.3733 96.659C14.1104 96.5715 13.8475 96.4839 13.4969 96.4839C12.5329 96.4839 11.9194 97.0968 11.9194 98.1474V101.737H10.3418V95.0831H11.3935L11.7441 96.0461C12.0946 95.3457 12.7958 94.908 13.6722 94.908C14.1104 94.908 14.461 95.0831 14.8116 95.2582Z" fill="currentColor"/>
<path d="M15.0745 98.4101C15.0745 96.3964 16.5644 94.908 18.6678 94.908C20.7712 94.908 22.2611 96.3088 22.2611 98.4101C22.2611 100.424 20.7712 101.912 18.6678 101.912C16.5644 101.912 15.0745 100.424 15.0745 98.4101ZM20.5959 98.4101C20.5959 97.1843 19.8072 96.3088 18.6678 96.3088C17.5285 96.3088 16.7397 97.1843 16.7397 98.4101C16.7397 99.6358 17.5285 100.511 18.6678 100.511C19.8072 100.424 20.5959 99.6358 20.5959 98.4101Z" fill="currentColor"/>
<path d="M29.5354 101.649V101.736H27.6949L25.3285 98.9347V101.736H23.6633V91.0549H25.2409V97.709L27.432 95.0824H29.2725V95.1699L26.6432 98.3218L29.5354 101.649Z" fill="currentColor"/>
<path d="M36.2836 98.1476C36.2836 98.4103 36.2836 98.673 36.196 98.9356H31.4633C31.6386 99.9862 32.515 100.599 33.5667 100.599C34.3555 100.599 34.8814 100.336 35.3196 99.9862L36.0207 101.037C35.2319 101.65 34.4431 102 33.4791 102C31.3757 102 29.8857 100.599 29.8857 98.4978C29.8857 96.5717 31.288 94.9957 33.3038 94.9957C35.1443 94.9082 36.2836 96.1339 36.2836 98.1476ZM31.4633 97.7974H34.7061C34.6184 96.7468 34.0049 96.2215 33.2162 96.2215C32.3397 96.2215 31.6386 96.8343 31.4633 97.7974Z" fill="currentColor"/>
<path d="M42.1558 95.2582L41.7176 96.659C41.4547 96.5715 41.1917 96.4839 40.8412 96.4839C39.8771 96.4839 39.2636 97.0968 39.2636 98.1474V101.737H37.686V95.0831H38.8254L39.176 96.0461C39.5265 95.3457 40.2277 94.908 41.1041 94.908C41.5423 94.908 41.8929 95.0831 42.1558 95.2582Z" fill="currentColor"/>
<path d="M42.594 101.124L43.2075 99.9861C43.7333 100.336 44.4345 100.511 45.048 100.511C45.6615 100.511 46.012 100.249 46.012 99.811C46.012 99.2857 45.3985 99.1106 44.6974 98.8479C43.6457 98.4102 42.8569 97.8849 42.8569 96.8342C42.8569 95.6085 43.9086 94.9956 45.2233 94.9956C46.012 94.9956 46.7132 95.1707 47.4143 95.6085L46.8885 96.6591C46.3626 96.3965 45.8368 96.3089 45.3985 96.3089C44.8727 96.3089 44.4345 96.484 44.4345 96.8342C44.4345 97.272 44.9603 97.5346 45.6615 97.7973C46.8008 98.2351 47.6772 98.7604 47.6772 99.8986C47.6772 101.124 46.7132 101.912 45.2233 101.912C44.2592 101.825 43.3828 101.65 42.594 101.124Z" fill="currentColor"/>
<path d="M31.5513 62.863L15.8633 47.191H15.688L15.7756 0L0 15.7595L0.0876425 47.0159L0.262927 47.191H0.0876425L15.8633 62.9506H31.6389H31.5513L47.2393 47.191V16.0222L31.5513 0.350212V62.863Z" fill="currentColor"/>
<path d="M0 0V7.87977L7.88782 0H0Z" fill="currentColor"/>
<path d="M47.2392 0H39.3513L47.2392 7.87977V0Z" fill="currentColor"/>
<path d="M68.3611 84.401V37.21L52.6731 52.9695L52.7607 84.2259L52.936 84.401H52.7607L68.4487 100.161H84.2244L68.4487 84.401H68.3611Z" fill="currentColor"/>
<path d="M84.2244 37.21H68.4487L84.2244 52.9695L68.4487 68.6415H84.2244L100 52.9695L84.2244 37.21Z" fill="currentColor"/>
<path d="M84.2244 100.161L100 84.401L84.2244 68.6415V100.161Z" fill="currentColor"/>
<path d="M52.761 37.21V45.0897L60.6488 37.21H52.761Z" fill="currentColor"/>
</symbol><symbol id="shield" viewBox="0 0 33 35">
<path d="M11.9474 16.7747L15.296 20.1328C15.4942 20.3316 15.8171 20.3283 16.0112 20.1255L21.5933 14.2943M2.327 5.9114C5.75784 6.46513 11.566 6.08157 15.2681 1.45905C15.7804 0.81944 16.9032 0.859809 17.4048 1.50783C19.3357 4.00246 23.4152 6.8415 30.0569 5.86016C30.6315 5.77525 31.1822 6.15995 31.2285 6.739C31.8173 14.0992 29.6886 28.0661 16.7339 32.9867C16.5083 33.0724 16.2587 33.0733 16.0358 32.9806C10.2867 30.5908 -0.0470787 22.3229 1.08602 6.83628C1.13065 6.22632 1.72322 5.81395 2.327 5.9114Z" stroke="#A0A0A0" stroke-width="2" stroke-linecap="round" fill="white"/>
</symbol><symbol id="stopwatch" viewBox="0 0 26 31">
<path d="M12.7537 30.29C5.71002 30.29 0 24.58 0 17.5363C0 10.4927 5.71002 4.78263 12.7537 4.78263C19.7973 4.78263 25.5074 10.4927 25.5074 17.5363C25.4995 24.5767 19.7941 30.2821 12.7537 30.29ZM12.7537 7.97105C7.47093 7.97105 3.18842 12.2536 3.18842 17.5363C3.18842 22.8191 7.47093 27.1016 12.7537 27.1016C18.0364 27.1016 22.3189 22.8191 22.3189 17.5363C22.3128 12.2561 18.0339 7.9772 12.7537 7.97105ZM14.3479 17.5363C14.3479 18.4168 13.6341 19.1305 12.7537 19.1305C11.8732 19.1305 11.1595 18.4168 11.1595 17.5363V12.7537C11.1595 11.8732 11.8732 11.1595 12.7537 11.1595C13.6341 11.1595 14.3479 11.8732 14.3479 12.7537V17.5363ZM24.3818 9.09657C24.381 9.09745 24.3795 9.09745 24.3787 9.09657L22.3189 7.03684C21.6965 6.41436 21.6965 5.40512 22.3189 4.78263C22.9414 4.16015 23.9507 4.16015 24.5732 4.78263L25.2203 5.42973C26.0013 6.21078 26.0013 7.47711 25.2203 8.25816L24.3818 9.09657ZM17.5363 1.59421C17.5363 2.47467 16.8226 3.18842 15.9421 3.18842H9.56526C8.6848 3.18842 7.97105 2.47467 7.97105 1.59421C7.97105 0.713752 8.6848 0 9.56526 0H15.9421C16.8226 0 17.5363 0.713752 17.5363 1.59421Z" fill="#A0A0A0"/>
</symbol></svg>