<svg xmlns="http://www.w3.org/2000/svg" xmlns:xlink="http://www.w3.org/1999/xlink"><symbol id="bars" viewBox="0 0 32 24">
<path d="M11.0555 1.39846C11.1036 1.16639 11.308 1 11.545 1H19.7701C20.0071 1 20.2115 1.16639 20.2596 1.39846L21.7707 8.68417C21.8351 8.99454 21.5981 9.28572 21.2812 9.28572H10.0339C9.71695 9.28572 9.47997 8.99454 9.54434 8.68417L11.0555 1.39846ZM2.52207 15.1128C2.5702 14.8807 2.77465 14.7143 3.01165 14.7143H11.2367C11.4737 14.7143 11.6781 14.8807 11.7263 15.1128L13.2374 22.3985C13.3017 22.7088 13.0648 23 12.7478 23H1.50054C1.18357 23 0.946589 22.7088 1.01096 22.3985L2.52207 15.1128ZM19.5887 15.1128C19.6368 14.8807 19.8413 14.7143 20.0783 14.7143H28.3033C28.5403 14.7143 28.7448 14.8807 28.7929 15.1128L30.304 22.3985C30.3684 22.7088 30.1314 23 29.8144 23H18.5672C18.2502 23 18.0132 22.7088 18.0776 22.3985L19.5887 15.1128Z" stroke="#A0A0A0" stroke-width="2"/>
</symbol><symbol id="candles" viewBox="0 0 32 32">
<rect x="1" y="4.19995" width="4.15385" height="12.9333" stroke="#A0A0A0" stroke-width="2"/>
<rect x="9.61548" y="10.6" width="4.15385" height="12.9333" stroke="#A0A0A0" stroke-width="2"/>
<rect x="18.2307" y="8.46667" width="4.15385" height="12.9333" stroke="#A0A0A0" stroke-width="2"/>
<rect x="26.8462" y="14.8666" width="4.15385" height="12.9333" stroke="#A0A0A0" stroke-width="2"/>
<rect x="27.7333" y="10.6666" width="2.13333" height="4.26667" rx="1.06667" fill="#A0A0A0"/>
<rect x="19.2" y="4.26672" width="2.13333" height="4.26667" rx="1.06667" fill="#A0A0A0"/>
<rect x="10.6667" y="6.40002" width="2.13333" height="4.26667" rx="1.06667" fill="#A0A0A0"/>
<rect x="2.1333" width="2.13333" height="4.26667" rx="1.06667" fill="#A0A0A0"/>
<rect x="27.7333" y="27.7333" width="2.13333" height="4.26667" rx="1.06667" fill="#A0A0A0"/>
<rect x="19.2" y="21.3334" width="2.13333" height="4.26667" rx="1.06667" fill="#A0A0A0"/>
<rect x="10.6667" y="23.4667" width="2.13333" height="4.26667" rx="1.06667" fill="#A0A0A0"/>
<rect x="2.1333" y="17.0667" width="2.13333" height="4.26667" rx="1.06667" fill="#A0A0A0"/>
</symbol><symbol id="headphones" viewBox="0 0 32 35">
<path d="M28.2936 13.321H27.5436V11.8806C27.5436 5.32963 22.2897 0 15.8314 0C9.37312 0 4.11915 5.32963 4.11915 11.8806V13.321H3.70639C1.66261 13.321 0 15.0076 0 17.0808V23.02C0 25.0932 1.66261 26.7798 3.70639 26.7798H6.2906C7.21957 26.7798 7.97532 26.0131 7.97532 25.0708V15.03C7.97532 14.0876 7.21957 13.321 6.2906 13.321H6.14082V11.8806C6.14082 6.46049 10.4879 2.05078 15.8317 2.05078C21.1749 2.05078 25.522 6.46049 25.522 11.8806V13.3319C24.6809 13.4267 24.0247 14.152 24.0247 15.03V25.0711C24.0247 25.9491 24.6809 26.674 25.522 26.7691V27.1253C25.522 29.2036 23.8552 30.8944 21.8064 30.8944H19.3719C18.8802 29.6987 17.5548 28.8396 15.9999 28.8396C14.0277 28.8396 12.4233 30.2215 12.4233 31.9198C12.4233 33.6181 14.0277 35 15.9999 35C17.5548 35 18.8802 34.141 19.3719 32.9452H21.8064C24.97 32.9452 27.5436 30.3345 27.5436 27.1253V26.7798H28.2936C30.3371 26.7798 32 25.0932 32 23.02V17.0808C32 15.0076 30.3371 13.321 28.2936 13.321ZM5.95365 24.729H3.70639C2.77742 24.729 2.02167 23.9624 2.02167 23.02V17.0808C2.02167 16.1384 2.77742 15.3718 3.70639 15.3718H5.95365V24.729ZM15.9999 32.9492C15.0835 32.9492 14.4449 32.4066 14.4449 31.9198C14.4449 31.4328 15.0835 30.8904 15.9999 30.8904C16.9162 30.8904 17.5548 31.433 17.5548 31.9198C17.5548 32.4066 16.9162 32.9492 15.9999 32.9492ZM29.9783 23.02C29.9783 23.9624 29.2226 24.729 28.2936 24.729H26.0463V15.3718H28.2936C29.2226 15.3718 29.9783 16.1384 29.9783 17.0808V23.02Z" fill="#A0A0A0"/>
</symbol><symbol id="icon-apple" viewBox="0 0 18 23">
<path d="M16.8069 16.256C16.4858 16.1237 16.1895 15.9353 15.9311 15.6992C15.1917 15.0386 14.7135 14.1233 14.5868 13.126C14.5252 12.6365 14.546 12.1398 14.6481 11.6575C14.7891 11.0193 15.1016 10.4344 15.5502 9.96897C15.8435 9.66809 16.1457 9.37619 16.4259 9.07082C16.5154 8.98798 16.5713 8.87377 16.5826 8.75073C16.594 8.62769 16.5599 8.50475 16.4872 8.40619C16.1664 7.98069 15.7924 7.60022 15.375 7.27452C14.8433 6.863 14.2331 6.57077 13.5841 6.41678C13.1219 6.29967 12.6447 6.25724 12.1697 6.29104C11.3756 6.38935 10.5953 6.58226 9.84462 6.86586C9.26494 7.08641 8.63237 7.11469 8.03618 6.94669C7.32271 6.7095 6.59 6.53817 5.8468 6.43475C5.00668 6.31254 4.14999 6.43612 3.37533 6.79124C2.60067 7.14637 1.93954 7.71862 1.46802 8.44211C1.057 9.0306 0.743368 9.68453 0.539721 10.3776C0.332366 11.0531 0.213104 11.7538 0.18504 12.4613C0.147894 13.3932 0.228847 14.3261 0.425873 15.2366C0.557676 15.8361 0.733323 16.4246 0.951325 16.997C1.43857 18.3618 2.13962 19.6359 3.02687 20.7692C3.49179 21.3846 4.09194 21.8785 4.77838 22.2108C5.21144 22.4173 5.69445 22.4876 6.16645 22.4128C6.665 22.3156 7.15224 22.1651 7.6202 21.9638C7.91869 21.8417 8.22815 21.7499 8.54412 21.6898C9.03977 21.6225 9.54391 21.6764 10.0154 21.847C10.5233 22.0042 11.0138 22.1928 11.5217 22.332C11.8802 22.4398 12.2571 22.4679 12.6271 22.4145C12.9971 22.3611 13.3517 22.2273 13.6673 22.0222C14.4645 21.4748 15.1391 20.76 15.6465 19.925C16.2624 19.0079 16.7475 18.0053 17.0871 16.9476C17.1175 16.884 17.1344 16.8144 17.1365 16.7436C17.1387 16.6727 17.1261 16.6022 17.0996 16.5368C17.073 16.4713 17.0332 16.4124 16.9827 16.364C16.9323 16.3156 16.8723 16.2788 16.8069 16.256Z" fill="#294570"/>
<path d="M8.60505 5.92653L8.87215 5.89959C9.48009 5.87623 10.0704 5.68373 10.5798 5.34269C10.9613 5.06331 11.3058 4.7342 11.6045 4.36364C11.9837 3.91293 12.2804 3.39563 12.4802 2.83668C12.6017 2.42621 12.6766 2.00276 12.7035 1.57469C12.7298 1.3187 12.7298 1.07169 12.7473 0.815701C12.7632 0.724886 12.7561 0.63141 12.7266 0.544225C12.6972 0.45704 12.6464 0.379066 12.5792 0.317769C12.512 0.256473 12.4305 0.213905 12.3426 0.194145C12.2548 0.174385 12.1634 0.178094 12.0774 0.204915C11.6447 0.310414 11.2236 0.460894 10.8207 0.654022C10.202 0.925322 9.65339 1.34045 9.21807 1.86661C8.47971 2.83244 8.06506 4.01693 8.03582 5.24389V5.44599C8.03328 5.51908 8.0472 5.59178 8.07649 5.65846C8.10578 5.72514 8.14965 5.784 8.2047 5.83047C8.25976 5.87695 8.32451 5.90979 8.39394 5.92645C8.46337 5.94311 8.53561 5.94314 8.60505 5.92653Z" fill="#294570"/>
</symbol><symbol id="icon-google-play" viewBox="0 0 19 21">
<path d="M3.63208 0.50258C3.38357 0.346539 3.1008 0.257066 2.80976 0.242387C2.51872 0.227708 2.22875 0.288293 1.96651 0.418573L10.9542 9.65935L13.894 6.63043L3.63208 0.50258ZM1.13828 1.27731C1.02319 1.52839 0.964116 1.80261 0.965351 2.08004V18.9795C0.964872 19.2543 1.02557 19.5257 1.14283 19.7729L10.126 10.5087L1.13828 1.27731ZM10.9542 11.3675L1.98016 20.6129C2.21431 20.7227 2.46906 20.7784 2.72649 20.7763C3.04668 20.7796 3.36158 20.6924 3.63663 20.5243L13.894 14.3871L10.9542 11.3675ZM17.7803 8.96862L14.9407 7.24181L11.7824 10.5087L14.9452 13.7757L17.8031 12.0675C18.0611 11.9064 18.2743 11.6798 18.4223 11.4097C18.5702 11.1395 18.6479 10.8349 18.6479 10.5251C18.6479 10.2153 18.5702 9.91063 18.4223 9.6405C18.2743 9.37037 18.0611 9.14382 17.8031 8.98262L17.7803 8.96862Z" fill="#294570"/>
</symbol><symbol id="icon-pc" viewBox="0 0 24 23">
<path d="M0.508789 12.4194V19.1702L9.90649 20.5552V12.4194H0.508789Z" fill="#294570"/>
<path d="M9.90649 2.05078L0.508789 3.43618V10.189H9.90649V2.05078Z" fill="#294570"/>
<path d="M23.105 10.1884V0.0106201L12.09 1.62811V10.1884H23.105Z" fill="#294570"/>
<path d="M12.0901 20.9958L23.1052 22.6133V12.4189H12.0901V20.9958Z" fill="#294570"/>
</symbol><symbol id="icon-terminal" viewBox="0 0 31 23">
<path d="M27.2839 11.411C27.2839 11.2936 27.2839 11.1763 27.2839 11.059C27.2798 8.12648 25.1154 5.75337 22.4559 5.75788C21.6499 5.75788 20.8602 5.98346 20.1524 6.41206C19.2154 2.05834 15.2589 -0.630594 11.3146 0.40257C8.02094 1.26429 5.68877 4.49913 5.66831 8.23476C5.66831 8.27988 5.66831 8.32951 5.66831 8.37462C2.1905 9.23635 0.00152868 13.0442 0.783012 16.8791C1.44175 20.1274 4.05624 22.4374 7.07171 22.4419H25.4918C28.3477 22.4419 30.6594 19.8928 30.6635 16.7482C30.6635 14.3661 29.3215 12.2366 27.3003 11.4064L27.2839 11.411ZM11.3555 18.1513C11.3555 18.5393 11.0691 18.8551 10.7173 18.8551C10.3654 18.8551 10.079 18.5393 10.079 18.1513V14.6097C10.079 14.2217 10.3654 13.9059 10.7173 13.9059C11.0691 13.9059 11.3555 14.2217 11.3555 14.6097V18.1513ZM14.1623 18.1513C14.1623 18.5393 13.8759 18.8551 13.5241 18.8551C13.1722 18.8551 12.8858 18.5393 12.8858 18.1513V12.1057C12.8858 11.7177 13.1722 11.4019 13.5241 11.4019C13.8759 11.4019 14.1623 11.7177 14.1623 12.1057V18.1513ZM16.9691 18.1198C16.9691 18.5078 16.6827 18.8236 16.3309 18.8236C15.979 18.8236 15.6926 18.5078 15.6926 18.1198V16.6038C15.6926 16.2158 15.979 15.9 16.3309 15.9C16.6827 15.9 16.9691 16.2158 16.9691 16.6038V18.1198ZM19.7759 18.0431C19.7759 18.4311 19.4895 18.7469 19.1377 18.7469C18.7858 18.7469 18.4994 18.4311 18.4994 18.0431V9.9943C18.4994 9.6063 18.7858 9.29049 19.1377 9.29049C19.4895 9.29049 19.7759 9.6063 19.7759 9.9943V18.0431Z" fill="#294570"/>
</symbol><symbol id="shield" viewBox="0 0 33 35">
<path d="M11.9474 16.7747L15.296 20.1328C15.4942 20.3316 15.8171 20.3283 16.0112 20.1255L21.5933 14.2943M2.327 5.9114C5.75784 6.46513 11.566 6.08157 15.2681 1.45905C15.7804 0.81944 16.9032 0.859809 17.4048 1.50783C19.3357 4.00246 23.4152 6.8415 30.0569 5.86016C30.6315 5.77525 31.1822 6.15995 31.2285 6.739C31.8173 14.0992 29.6886 28.0661 16.7339 32.9867C16.5083 33.0724 16.2587 33.0733 16.0358 32.9806C10.2867 30.5908 -0.0470787 22.3229 1.08602 6.83628C1.13065 6.22632 1.72322 5.81395 2.327 5.9114Z" stroke="#A0A0A0" stroke-width="2" stroke-linecap="round"/>
</symbol><symbol id="stopwatch" viewBox="0 0 26 31">
<path d="M12.7537 30.29C5.71002 30.29 0 24.58 0 17.5363C0 10.4927 5.71002 4.78263 12.7537 4.78263C19.7973 4.78263 25.5074 10.4927 25.5074 17.5363C25.4995 24.5767 19.7941 30.2821 12.7537 30.29ZM12.7537 7.97105C7.47093 7.97105 3.18842 12.2536 3.18842 17.5363C3.18842 22.8191 7.47093 27.1016 12.7537 27.1016C18.0364 27.1016 22.3189 22.8191 22.3189 17.5363C22.3128 12.2561 18.0339 7.9772 12.7537 7.97105ZM14.3479 17.5363C14.3479 18.4168 13.6341 19.1305 12.7537 19.1305C11.8732 19.1305 11.1595 18.4168 11.1595 17.5363V12.7537C11.1595 11.8732 11.8732 11.1595 12.7537 11.1595C13.6341 11.1595 14.3479 11.8732 14.3479 12.7537V17.5363ZM24.3818 9.09657C24.381 9.09745 24.3795 9.09745 24.3787 9.09657L22.3189 7.03684C21.6965 6.41436 21.6965 5.40512 22.3189 4.78263C22.9414 4.16015 23.9507 4.16015 24.5732 4.78263L25.2203 5.42973C26.0013 6.21078 26.0013 7.47711 25.2203 8.25816L24.3818 9.09657ZM17.5363 1.59421C17.5363 2.47467 16.8226 3.18842 15.9421 3.18842H9.56526C8.6848 3.18842 7.97105 2.47467 7.97105 1.59421C7.97105 0.713752 8.6848 0 9.56526 0H15.9421C16.8226 0 17.5363 0.713752 17.5363 1.59421Z" fill="#A0A0A0"/>
</symbol></svg>